<svg xmlns="http://www.w3.org/2000/svg" version="1.1" xmlns:xlink="http://www.w3.org/1999/xlink"
    width="2000" height="150" viewBox="0 0 2000 150">
    <svg xml:space="preserve" width="2000" height="150" data-version="2"
        data-id="lg_R2yBtOnFC61YMjJxzT" viewBox="0 0 793 150" x="0" y="0"><rect width="100%" height="100%" fill="transparent"></rect><path fill="#fff" d="M311.234 84.957q-1.09 9.66-5.08 17.09-4 7.44-10.24 12.1-6.24 4.67-14.19 7.05-7.95 2.38-17.35 2.38-8.75 0-15.96-1.89-7.21-1.9-12.17-5.06-4.95-3.15-8.75-7.69-3.8-4.54-6.05-9.33-2.26-4.8-3.64-10.49-1.38-5.7-1.87-10.63-.48-4.92-.48-10.26v-5.67q.64-9.39 4.38-16.89 3.73-7.5 9.07-12.1 5.35-4.61 12.23-7.66 6.89-3.06 13.39-4.25 6.5-1.19 12.94-1.19 10.36 0 18.31 2.47 7.95 2.48 12.97 6.99 5.02 4.5 7.86 10.33 2.83 5.83 3.6 13.03v6.18q0 2.06-14.16 2.06-3.35 0-9.3-.13-5.96-.12-7.82-.12-.32 0-.97.06-.64.06-.96.06-1.68 0-2.55-1.38-.86-1.38-1.15-3.38-.29-1.99-.71-3.99-.42-1.99-1.74-3.38-1.32-1.38-3.64-1.38-2.31 0-4.05.77-1.74.77-2.77 2.41-1.03 1.65-1.71 3.32-.67 1.67-.96 4.34-.29 2.67-.39 4.51-.09 1.83-.16 4.89-.06 3.06-.13 4.47 0 .78-.13 2.84-.12 2.06-.12 3.34 0 16.03 8.49 16.48 2.32 0 3.8-1.67t2.03-3.73q.54-2.06 1.25-4.35.71-2.28 1.55-3.12h35.01q2.13.19 2.32 2.57m32.57 36.18h-7.59q-1.81 0-4.19.1-2.38.09-3.67.16-1.28.06-2.93-.04-1.64-.09-2.47-.45-.84-.35-1.77-1.06-.94-.71-1.36-1.93-.41-1.22-.7-3.03-.29-1.8-.29-4.31 0-13.9.51-37.94.52-24.04.52-35.31 0-13.9 1.41-14.67h23.95q6.37 0 9.49.74t4.15 2.22q1.03 1.48 1.03 4.5 0 .9-.13 3.51-.12 2.61-.12 4.34v2.97q0 2.06-.2 6.18-.19 4.11-.19 6.17v1.29q.13.39.13 1.03h2.57q1.1 0 3.35.07 2.25.06 3.35.06 2.96 0 4.37-.39v-26.77q0-3.22.33-4.61.32-1.38.9-1.73.58-.36 2.12-.36.84 0 2.7.07 1.87.06 2.71.06l4.76-.19q4.83-.19 8.63-.19 17.5 0 17.5 3.86 0 1.03.07 2.96.06 1.93.06 2.96 0 2.25-.06 6.56-.07 4.32-.07 6.57 0 6.69.2 19.95.19 13.26.19 19.96 0 .58-.06 1.45-.07.87-.07 1.12v3.09q0 4.12.13 6.18v1.42q-.13.26-.13.77 0 3.41.13 10.36.13 6.96.13 10.37-.45 2.31-12.36 2.31h-26.78l-1.93-2.7v-4.25q0-4.31.07-12.74.06-8.43.06-12.75 0-1.48-.35-2.02-.36-.55-1.45-.55h-2.32q-4.38 0-7.98.51 0 5.35-.13 16.06-.13 10.72-.13 16.13-.77 1.93-16.09 1.93m72.61-1.68q3.99-14.74 8.82-29.93 4.82-15.19 12-36.33 7.18-21.15 9.82-29.26.77-1.28 1.03-1.54h10.81q3.8 0 11.2-.13 7.4-.13 11.2-.13h10.81q.97 0 1.61.03.65.03 1.55.16t1.45.39q.54.26.93.77.39.52.39 1.23l29.67 94.04q0 1.28-.93 1.77-.94.48-3.51.48h-5.92q-2.58 0-7.66.06-5.09.07-7.66.07-.77 0-3.12.1-2.35.09-3.96.06-1.61-.03-3.58-.19-1.96-.16-3.15-.71-1.19-.55-1.51-1.45v-4.25q-.65-3.22-2.25-5.92-1.61-2.7-3.42-2.7h-22.14l-3.35 13.64q-.7 1.55-7.21 1.55h-5.14q-2.77 0-8.24.19-5.48.19-8.24.19h-1.81q-1.03 0-3.25.07-2.22.06-3.44.06-.51-.51-1.8-2.32m49.82-61.4-5.15 22.33 1.8 3.03h4.25q5.15 0 9.43-.61 4.28-.61 4.28-1.97l-8.3-37.07q-1.16 0-3.12 4.38-1.97 4.37-3.19 9.91m57.67-15.71q0-1.16.13-3.44.13-2.29.13-3.12 0-.33-.13-2.32-.13-2-.13-3.48 0-6.82 1.29-6.82.52 0 .9.13 13.45 0 39.88-.32 26.42-.32 39.55-.32 3.28 0 4.15.57.87.58.87 2.26v1.8q0 3.35.07 9.88.06 6.53.06 9.95 0 3.34-1.8 3.34-3.61 0-10.75-.13-7.15-.13-10.75-.13v69.01q-.45 1.93-2.19 2.06-2.25 0-6.56-.07-4.32-.06-6.57-.06-.13 0-.26.13-2.83 0-7.95-.07-5.11-.06-7.62-.06h-3.87q-1.28.13-3.73.13l-2.57-3.09q0-9.79.64-29.1.64-19.31.64-29.09 0-.45-.03-1.48t-.03-1.68q0-.64-.1-1.6-.09-.97-.32-1.58-.23-.61-.55-1.22-.32-.62-.87-.91-.54-.29-1.32-.29h-18.4q-1.81-.51-1.81-8.88"></path><path fill="#fff" d="M609.134 33.467q0-10.49 2.18-11.72.65.13 1.81.13h2.06q1.99 0 6.56-.13 4.57-.12 6.95-.12 9.14 0 14.78.74 5.63.74 6.34 2.73l-.78 66.43h1.42q5.15-.26 7.21-.23 2.06.04 7.56.26 5.51.23 10.59.23 4.19 0 6.21.48 2.03.48 2.03 1.96v24.72q-.84 2.32-28.71 2.32h-44.54q-1.55-2.26-1.55-7.21v-18.28q0-8.05.13-23.82t.13-23.81q0-1.49-.19-6.57-.19-5.09-.19-8.11m175.79-8.11q-4.06 8.11-15.16 29.13-11.11 21.01-16.77 32.79v32.18q-.32 1.1-.84 1.58-.51.48-1.74.48-6.05 0-17.99.13-11.94.13-18.31.13-2.32-2.32-2.32-5.4.26-1.42.33-3.22.06-1.81 0-4.57-.07-2.77-.07-3.54v-4.64q0-15.38-6.44-27.68-.96-1.99-2.02-4.18-1.07-2.19-2.03-4.25-.97-2.06-2-4.18-1.03-2.13-2.02-4.25l-1.97-4.18q-.96-2.06-2.03-4.25-1.06-2.19-2.09-4.19l-11-18.47q0-.84 1.35-1.55 1.35-.7 2.7-.7h16.22q3.35 0 10.08.06 6.72.07 10 .07.91.12 2 1.86 1.09 1.74 2.29 4.7 1.19 2.96 2.34 6.28 1.16 3.31 2.32 7.3 1.16 3.99 2.03 7.02.87 3.02 1.74 6.18.87 3.15 1.12 4.12l11.78-37.72h36.31q.9.13 1.35.74.45.61.84 2.22M173.82 143.83c-8.306-10.046-6.289-23.731-4.311-31.108a39.552 39.552 0 0 0 2.907-14.634c0-9.176-3.223-17.68-8.721-24.819-5.36 33.303-38.385 59.11-78.55 59.744a59.328 59.328 0 0 0 33.975 10.402c9.433 0 18.253-2.097 25.926-5.755 11.787 7.91 26.46 8.998 26.46 8.998 6.348 0 2.334-2.808 2.334-2.808"></path><path fill="#fff" d="M157.663 63.777c0-34.41-33.224-62.413-74.021-62.413S9.66 29.367 9.66 63.777c0 6.724 1.344 13.447 3.955 19.974 3.065 11.272 6.09 31.443-5.537 47.066 3.955-.395 21.674-2.788 35.992-12.38l1.621-1.087 1.78.83a85.037 85.037 0 0 0 36.17 8.03c40.818 0 74.022-28.023 74.022-62.433"></path></svg>
</svg>